<mxfile host="app.diagrams.net" agent="Mozilla/5.0 (Windows NT 10.0; Win64; x64) AppleWebKit/537.36 (KHTML, like Gecko) Chrome/131.0.0.0 Safari/537.36 Edg/131.0.0.0" version="25.0.0">
  <diagram id="C5RBs43oDa-KdzZeNtuy" name="Page-1">
    <mxGraphModel dx="499" dy="869" grid="1" gridSize="10" guides="1" tooltips="1" connect="1" arrows="1" fold="1" page="1" pageScale="1" pageWidth="827" pageHeight="1169" math="0" shadow="0">
      <root>
        <mxCell id="WIyWlLk6GJQsqaUBKTNV-0" />
        <mxCell id="WIyWlLk6GJQsqaUBKTNV-1" parent="WIyWlLk6GJQsqaUBKTNV-0" />
        <mxCell id="jNvTbN6xgpNqWaqzQ7Ud-0" value="Schedule MRI Appointment" style="ellipse;whiteSpace=wrap;html=1;" vertex="1" parent="WIyWlLk6GJQsqaUBKTNV-1">
          <mxGeometry x="354" y="410" width="120" height="80" as="geometry" />
        </mxCell>
        <mxCell id="jNvTbN6xgpNqWaqzQ7Ud-14" style="edgeStyle=orthogonalEdgeStyle;rounded=0;orthogonalLoop=1;jettySize=auto;html=1;entryX=0.008;entryY=0.588;entryDx=0;entryDy=0;entryPerimeter=0;" edge="1" parent="WIyWlLk6GJQsqaUBKTNV-1" source="jNvTbN6xgpNqWaqzQ7Ud-1" target="jNvTbN6xgpNqWaqzQ7Ud-12">
          <mxGeometry relative="1" as="geometry">
            <mxPoint x="125" y="300" as="targetPoint" />
          </mxGeometry>
        </mxCell>
        <mxCell id="jNvTbN6xgpNqWaqzQ7Ud-20" style="edgeStyle=orthogonalEdgeStyle;rounded=0;orthogonalLoop=1;jettySize=auto;html=1;entryX=0;entryY=0.5;entryDx=0;entryDy=0;" edge="1" parent="WIyWlLk6GJQsqaUBKTNV-1" source="jNvTbN6xgpNqWaqzQ7Ud-1" target="jNvTbN6xgpNqWaqzQ7Ud-17">
          <mxGeometry relative="1" as="geometry" />
        </mxCell>
        <mxCell id="jNvTbN6xgpNqWaqzQ7Ud-34" style="edgeStyle=orthogonalEdgeStyle;rounded=0;orthogonalLoop=1;jettySize=auto;html=1;entryX=0;entryY=0.5;entryDx=0;entryDy=0;" edge="1" parent="WIyWlLk6GJQsqaUBKTNV-1" source="jNvTbN6xgpNqWaqzQ7Ud-1" target="jNvTbN6xgpNqWaqzQ7Ud-33">
          <mxGeometry relative="1" as="geometry" />
        </mxCell>
        <mxCell id="jNvTbN6xgpNqWaqzQ7Ud-42" style="edgeStyle=orthogonalEdgeStyle;rounded=0;orthogonalLoop=1;jettySize=auto;html=1;entryX=0;entryY=0.5;entryDx=0;entryDy=0;" edge="1" parent="WIyWlLk6GJQsqaUBKTNV-1" source="jNvTbN6xgpNqWaqzQ7Ud-1" target="jNvTbN6xgpNqWaqzQ7Ud-41">
          <mxGeometry relative="1" as="geometry">
            <Array as="points">
              <mxPoint x="120" y="250" />
            </Array>
          </mxGeometry>
        </mxCell>
        <mxCell id="jNvTbN6xgpNqWaqzQ7Ud-1" value="Patient&lt;div&gt;&lt;br&gt;&lt;/div&gt;" style="shape=umlActor;verticalLabelPosition=bottom;verticalAlign=top;html=1;outlineConnect=0;" vertex="1" parent="WIyWlLk6GJQsqaUBKTNV-1">
          <mxGeometry x="110" y="350" width="30" height="60" as="geometry" />
        </mxCell>
        <mxCell id="jNvTbN6xgpNqWaqzQ7Ud-2" style="edgeStyle=orthogonalEdgeStyle;rounded=0;orthogonalLoop=1;jettySize=auto;html=1;entryX=0.017;entryY=0.338;entryDx=0;entryDy=0;entryPerimeter=0;" edge="1" parent="WIyWlLk6GJQsqaUBKTNV-1" source="jNvTbN6xgpNqWaqzQ7Ud-1" target="jNvTbN6xgpNqWaqzQ7Ud-0">
          <mxGeometry relative="1" as="geometry" />
        </mxCell>
        <mxCell id="jNvTbN6xgpNqWaqzQ7Ud-32" style="edgeStyle=orthogonalEdgeStyle;rounded=0;orthogonalLoop=1;jettySize=auto;html=1;entryX=1;entryY=0.5;entryDx=0;entryDy=0;" edge="1" parent="WIyWlLk6GJQsqaUBKTNV-1" source="jNvTbN6xgpNqWaqzQ7Ud-3" target="jNvTbN6xgpNqWaqzQ7Ud-26">
          <mxGeometry relative="1" as="geometry" />
        </mxCell>
        <mxCell id="jNvTbN6xgpNqWaqzQ7Ud-35" style="edgeStyle=orthogonalEdgeStyle;rounded=0;orthogonalLoop=1;jettySize=auto;html=1;entryX=1;entryY=0.5;entryDx=0;entryDy=0;" edge="1" parent="WIyWlLk6GJQsqaUBKTNV-1" source="jNvTbN6xgpNqWaqzQ7Ud-3" target="jNvTbN6xgpNqWaqzQ7Ud-33">
          <mxGeometry relative="1" as="geometry">
            <Array as="points">
              <mxPoint x="450" y="530" />
              <mxPoint x="450" y="910" />
            </Array>
          </mxGeometry>
        </mxCell>
        <mxCell id="jNvTbN6xgpNqWaqzQ7Ud-44" style="edgeStyle=orthogonalEdgeStyle;rounded=0;orthogonalLoop=1;jettySize=auto;html=1;entryX=1;entryY=0.5;entryDx=0;entryDy=0;" edge="1" parent="WIyWlLk6GJQsqaUBKTNV-1" source="jNvTbN6xgpNqWaqzQ7Ud-3" target="jNvTbN6xgpNqWaqzQ7Ud-17">
          <mxGeometry relative="1" as="geometry">
            <Array as="points">
              <mxPoint x="705" y="590" />
            </Array>
          </mxGeometry>
        </mxCell>
        <mxCell id="jNvTbN6xgpNqWaqzQ7Ud-45" style="edgeStyle=orthogonalEdgeStyle;rounded=0;orthogonalLoop=1;jettySize=auto;html=1;entryX=1;entryY=0.5;entryDx=0;entryDy=0;" edge="1" parent="WIyWlLk6GJQsqaUBKTNV-1" source="jNvTbN6xgpNqWaqzQ7Ud-3" target="jNvTbN6xgpNqWaqzQ7Ud-41">
          <mxGeometry relative="1" as="geometry">
            <Array as="points">
              <mxPoint x="330" y="530" />
              <mxPoint x="330" y="250" />
            </Array>
          </mxGeometry>
        </mxCell>
        <mxCell id="jNvTbN6xgpNqWaqzQ7Ud-3" value="Doctor&lt;div&gt;&lt;br&gt;&lt;/div&gt;" style="shape=umlActor;verticalLabelPosition=bottom;verticalAlign=top;html=1;outlineConnect=0;" vertex="1" parent="WIyWlLk6GJQsqaUBKTNV-1">
          <mxGeometry x="690" y="500" width="30" height="60" as="geometry" />
        </mxCell>
        <mxCell id="jNvTbN6xgpNqWaqzQ7Ud-16" style="edgeStyle=orthogonalEdgeStyle;rounded=0;orthogonalLoop=1;jettySize=auto;html=1;entryX=1;entryY=0.5;entryDx=0;entryDy=0;" edge="1" parent="WIyWlLk6GJQsqaUBKTNV-1" source="jNvTbN6xgpNqWaqzQ7Ud-4" target="jNvTbN6xgpNqWaqzQ7Ud-12">
          <mxGeometry relative="1" as="geometry" />
        </mxCell>
        <mxCell id="jNvTbN6xgpNqWaqzQ7Ud-37" style="edgeStyle=orthogonalEdgeStyle;rounded=0;orthogonalLoop=1;jettySize=auto;html=1;entryX=1;entryY=0.5;entryDx=0;entryDy=0;" edge="1" parent="WIyWlLk6GJQsqaUBKTNV-1" source="jNvTbN6xgpNqWaqzQ7Ud-4" target="jNvTbN6xgpNqWaqzQ7Ud-36">
          <mxGeometry relative="1" as="geometry">
            <Array as="points">
              <mxPoint x="670" y="380" />
              <mxPoint x="670" y="210" />
            </Array>
          </mxGeometry>
        </mxCell>
        <mxCell id="jNvTbN6xgpNqWaqzQ7Ud-46" style="edgeStyle=orthogonalEdgeStyle;rounded=0;orthogonalLoop=1;jettySize=auto;html=1;entryX=0;entryY=0.5;entryDx=0;entryDy=0;" edge="1" parent="WIyWlLk6GJQsqaUBKTNV-1" source="jNvTbN6xgpNqWaqzQ7Ud-4" target="jNvTbN6xgpNqWaqzQ7Ud-39">
          <mxGeometry relative="1" as="geometry">
            <Array as="points">
              <mxPoint x="680" y="380" />
              <mxPoint x="680" y="210" />
            </Array>
          </mxGeometry>
        </mxCell>
        <mxCell id="jNvTbN6xgpNqWaqzQ7Ud-4" value="Admin&lt;div&gt;&lt;br&gt;&lt;/div&gt;" style="shape=umlActor;verticalLabelPosition=bottom;verticalAlign=top;html=1;outlineConnect=0;" vertex="1" parent="WIyWlLk6GJQsqaUBKTNV-1">
          <mxGeometry x="690" y="350" width="30" height="60" as="geometry" />
        </mxCell>
        <mxCell id="jNvTbN6xgpNqWaqzQ7Ud-10" style="edgeStyle=orthogonalEdgeStyle;rounded=0;orthogonalLoop=1;jettySize=auto;html=1;entryX=0.975;entryY=0.313;entryDx=0;entryDy=0;entryPerimeter=0;" edge="1" parent="WIyWlLk6GJQsqaUBKTNV-1" target="jNvTbN6xgpNqWaqzQ7Ud-0">
          <mxGeometry relative="1" as="geometry">
            <mxPoint x="690" y="380" as="sourcePoint" />
          </mxGeometry>
        </mxCell>
        <mxCell id="jNvTbN6xgpNqWaqzQ7Ud-11" style="edgeStyle=orthogonalEdgeStyle;rounded=0;orthogonalLoop=1;jettySize=auto;html=1;entryX=0.283;entryY=0.913;entryDx=0;entryDy=0;entryPerimeter=0;" edge="1" parent="WIyWlLk6GJQsqaUBKTNV-1" source="jNvTbN6xgpNqWaqzQ7Ud-3" target="jNvTbN6xgpNqWaqzQ7Ud-0">
          <mxGeometry relative="1" as="geometry" />
        </mxCell>
        <mxCell id="jNvTbN6xgpNqWaqzQ7Ud-12" value="Register Patient&lt;div&gt;Details&lt;/div&gt;" style="ellipse;whiteSpace=wrap;html=1;" vertex="1" parent="WIyWlLk6GJQsqaUBKTNV-1">
          <mxGeometry x="354" y="270" width="120" height="80" as="geometry" />
        </mxCell>
        <mxCell id="jNvTbN6xgpNqWaqzQ7Ud-52" style="edgeStyle=orthogonalEdgeStyle;rounded=0;orthogonalLoop=1;jettySize=auto;html=1;entryX=0.5;entryY=0;entryDx=0;entryDy=0;dashed=1;dashPattern=12 12;endArrow=open;endFill=0;" edge="1" parent="WIyWlLk6GJQsqaUBKTNV-1" source="jNvTbN6xgpNqWaqzQ7Ud-17" target="jNvTbN6xgpNqWaqzQ7Ud-51">
          <mxGeometry relative="1" as="geometry" />
        </mxCell>
        <mxCell id="jNvTbN6xgpNqWaqzQ7Ud-17" value="Perform Scan" style="ellipse;whiteSpace=wrap;html=1;" vertex="1" parent="WIyWlLk6GJQsqaUBKTNV-1">
          <mxGeometry x="220" y="550" width="120" height="80" as="geometry" />
        </mxCell>
        <mxCell id="jNvTbN6xgpNqWaqzQ7Ud-54" style="edgeStyle=orthogonalEdgeStyle;rounded=0;orthogonalLoop=1;jettySize=auto;html=1;entryX=1;entryY=0.5;entryDx=0;entryDy=0;startArrow=open;startFill=0;dashed=1;dashPattern=12 12;" edge="1" parent="WIyWlLk6GJQsqaUBKTNV-1" source="jNvTbN6xgpNqWaqzQ7Ud-26" target="jNvTbN6xgpNqWaqzQ7Ud-53">
          <mxGeometry relative="1" as="geometry" />
        </mxCell>
        <mxCell id="jNvTbN6xgpNqWaqzQ7Ud-26" value="Analyze Scan" style="ellipse;whiteSpace=wrap;html=1;" vertex="1" parent="WIyWlLk6GJQsqaUBKTNV-1">
          <mxGeometry x="560" y="660" width="120" height="80" as="geometry" />
        </mxCell>
        <mxCell id="jNvTbN6xgpNqWaqzQ7Ud-31" style="edgeStyle=orthogonalEdgeStyle;rounded=0;orthogonalLoop=1;jettySize=auto;html=1;" edge="1" parent="WIyWlLk6GJQsqaUBKTNV-1" source="jNvTbN6xgpNqWaqzQ7Ud-28" target="jNvTbN6xgpNqWaqzQ7Ud-26">
          <mxGeometry relative="1" as="geometry" />
        </mxCell>
        <mxCell id="jNvTbN6xgpNqWaqzQ7Ud-28" value="AI" style="shape=umlActor;verticalLabelPosition=bottom;verticalAlign=top;html=1;outlineConnect=0;" vertex="1" parent="WIyWlLk6GJQsqaUBKTNV-1">
          <mxGeometry x="690" y="770" width="30" height="60" as="geometry" />
        </mxCell>
        <mxCell id="jNvTbN6xgpNqWaqzQ7Ud-33" value="Access MRI&lt;div&gt;Results&lt;/div&gt;" style="ellipse;whiteSpace=wrap;html=1;" vertex="1" parent="WIyWlLk6GJQsqaUBKTNV-1">
          <mxGeometry x="200" y="870" width="120" height="80" as="geometry" />
        </mxCell>
        <mxCell id="jNvTbN6xgpNqWaqzQ7Ud-36" value="Administer&lt;div&gt;Accounts&lt;/div&gt;" style="ellipse;whiteSpace=wrap;html=1;" vertex="1" parent="WIyWlLk6GJQsqaUBKTNV-1">
          <mxGeometry x="490" y="170" width="120" height="80" as="geometry" />
        </mxCell>
        <mxCell id="jNvTbN6xgpNqWaqzQ7Ud-39" value="Maintain&lt;div&gt;System&lt;/div&gt;" style="ellipse;whiteSpace=wrap;html=1;" vertex="1" parent="WIyWlLk6GJQsqaUBKTNV-1">
          <mxGeometry x="700" y="170" width="120" height="80" as="geometry" />
        </mxCell>
        <mxCell id="jNvTbN6xgpNqWaqzQ7Ud-41" value="View Scan&lt;div&gt;Feeback&lt;/div&gt;" style="ellipse;whiteSpace=wrap;html=1;" vertex="1" parent="WIyWlLk6GJQsqaUBKTNV-1">
          <mxGeometry x="180" y="210" width="120" height="80" as="geometry" />
        </mxCell>
        <mxCell id="jNvTbN6xgpNqWaqzQ7Ud-51" value="Prepare&lt;div&gt;Scans&lt;/div&gt;" style="ellipse;whiteSpace=wrap;html=1;" vertex="1" parent="WIyWlLk6GJQsqaUBKTNV-1">
          <mxGeometry x="180" y="710" width="100" height="80" as="geometry" />
        </mxCell>
        <mxCell id="jNvTbN6xgpNqWaqzQ7Ud-53" value="Generate AI&lt;div&gt;Review&lt;/div&gt;" style="ellipse;whiteSpace=wrap;html=1;" vertex="1" parent="WIyWlLk6GJQsqaUBKTNV-1">
          <mxGeometry x="460" y="600" width="100" height="80" as="geometry" />
        </mxCell>
        <mxCell id="jNvTbN6xgpNqWaqzQ7Ud-55" value="&amp;lt;&amp;lt;include&amp;gt;&amp;gt;" style="text;html=1;align=center;verticalAlign=middle;whiteSpace=wrap;rounded=0;fontSize=13;" vertex="1" parent="WIyWlLk6GJQsqaUBKTNV-1">
          <mxGeometry x="210" y="640" width="60" height="30" as="geometry" />
        </mxCell>
        <mxCell id="jNvTbN6xgpNqWaqzQ7Ud-56" value="&amp;lt;&amp;lt;include&amp;gt;&amp;gt;" style="text;html=1;align=center;verticalAlign=middle;whiteSpace=wrap;rounded=0;fontSize=13;" vertex="1" parent="WIyWlLk6GJQsqaUBKTNV-1">
          <mxGeometry x="570" y="610" width="60" height="30" as="geometry" />
        </mxCell>
        <mxCell id="jNvTbN6xgpNqWaqzQ7Ud-63" style="edgeStyle=orthogonalEdgeStyle;rounded=0;orthogonalLoop=1;jettySize=auto;html=1;entryX=1;entryY=1;entryDx=0;entryDy=0;endArrow=open;endFill=0;dashed=1;dashPattern=12 12;" edge="1" parent="WIyWlLk6GJQsqaUBKTNV-1" source="jNvTbN6xgpNqWaqzQ7Ud-61" target="jNvTbN6xgpNqWaqzQ7Ud-17">
          <mxGeometry relative="1" as="geometry" />
        </mxCell>
        <mxCell id="jNvTbN6xgpNqWaqzQ7Ud-61" value="Prepare&lt;div&gt;Scans&lt;/div&gt;" style="ellipse;whiteSpace=wrap;html=1;" vertex="1" parent="WIyWlLk6GJQsqaUBKTNV-1">
          <mxGeometry x="300" y="710" width="100" height="80" as="geometry" />
        </mxCell>
        <mxCell id="jNvTbN6xgpNqWaqzQ7Ud-64" value="&amp;lt;&amp;lt;extend&amp;gt;&amp;gt;" style="text;html=1;align=center;verticalAlign=middle;whiteSpace=wrap;rounded=0;fontSize=13;" vertex="1" parent="WIyWlLk6GJQsqaUBKTNV-1">
          <mxGeometry x="330" y="640" width="60" height="30" as="geometry" />
        </mxCell>
      </root>
    </mxGraphModel>
  </diagram>
</mxfile>
